<?xml version="1.0" standalone="no"?>
<!DOCTYPE svg PUBLIC "-//W3C//DTD SVG 20010904//EN"
 "http://www.w3.org/TR/2001/REC-SVG-20010904/DTD/svg10.dtd">
<svg version="1.0" xmlns="http://www.w3.org/2000/svg"
 width="598.000000pt" height="598.000000pt" viewBox="0 0 598.000000 598.000000"
 preserveAspectRatio="xMidYMid meet">
<metadata>
Created by potrace 1.16, written by Peter Selinger 2001-2019
</metadata>
<g transform="translate(0.000000,598.000000) scale(0.100000,-0.100000)"
fill="#000000" stroke="none">
<path d="M2650 5845 c-248 -31 -519 -101 -735 -190 -109 -45 -235 -110 -235
-122 0 -22 54 -113 68 -113 7 0 38 13 70 29 278 140 630 232 1015 267 l68 6
-3 66 -3 67 -70 1 c-38 1 -117 -4 -175 -11z"/>
<path d="M3130 5792 l0 -71 43 -5 c23 -3 89 -10 147 -16 287 -31 595 -120 859
-249 47 -23 92 -41 100 -41 15 0 71 86 71 109 0 6 -35 29 -78 50 -311 156
-698 263 -1044 287 l-98 7 0 -71z"/>
<path d="M1375 5363 c-283 -197 -569 -482 -743 -740 -61 -90 -61 -87 0 -122
29 -17 58 -31 65 -31 7 0 31 28 54 63 186 275 471 552 768 747 l23 15 -36 63
c-21 34 -40 62 -44 62 -4 -1 -43 -26 -87 -57z"/>
<path d="M4520 5344 c-31 -57 -33 -66 -19 -74 39 -23 182 -129 259 -193 180
-151 382 -374 507 -563 31 -46 60 -84 66 -84 12 0 117 60 117 66 0 11 -142
213 -207 294 -170 213 -450 468 -663 603 l-25 16 -35 -65z"/>
<path d="M397 4213 c-145 -305 -237 -652 -263 -990 l-7 -93 71 0 c79 0 82 3
82 74 0 88 37 307 80 478 41 159 118 365 191 510 16 32 29 60 29 63 0 7 -107
75 -118 75 -5 0 -34 -53 -65 -117z"/>
<path d="M4711 4284 c-80 -21 -144 -60 -205 -124 -145 -152 -176 -363 -80
-551 14 -28 22 -54 19 -57 -4 -4 -250 -237 -548 -518 l-542 -512 -39 20 c-84
43 -208 33 -284 -22 l-37 -26 -275 151 -275 152 -16 61 c-37 142 -134 221
-274 221 -75 1 -147 -30 -194 -84 -43 -50 -63 -96 -70 -169 l-6 -59 -428 -329
c-378 -289 -431 -326 -449 -317 -11 6 -47 11 -79 11 -141 0 -242 -114 -226
-254 27 -227 323 -286 432 -86 26 48 37 122 24 167 -3 9 132 119 371 303 479
368 446 345 468 325 33 -30 95 -49 162 -49 74 0 126 18 180 61 l35 28 268
-147 268 -148 4 -62 c6 -80 34 -138 95 -193 56 -51 103 -67 192 -67 167 0 293
141 274 309 l-6 56 478 452 c263 248 515 485 559 527 l81 76 53 -24 c253 -115
559 19 642 281 55 171 11 342 -122 473 -122 122 -288 168 -450 124z"/>
<path d="M5503 4260 c-29 -17 -53 -37 -53 -45 0 -9 14 -44 31 -78 18 -34 52
-114 76 -177 102 -267 151 -496 178 -832 l7 -78 69 0 69 0 0 68 c0 211 -72
572 -166 836 -44 121 -137 329 -150 333 -5 1 -33 -11 -61 -27z"/>
<path d="M130 2828 c0 -162 55 -475 122 -693 62 -202 165 -445 189 -445 7 0
35 14 64 30 l53 30 -50 113 c-65 145 -131 342 -168 504 -26 112 -36 180 -68
458 l-7 60 -67 3 -68 3 0 -63z"/>
<path d="M5730 2786 c0 -62 -30 -268 -56 -386 -48 -213 -111 -393 -210 -599
-35 -74 -63 -135 -62 -137 11 -9 111 -64 118 -64 22 0 144 263 210 455 74 216
134 504 142 680 l3 80 -72 3 -73 3 0 -35z"/>
<path d="M608 1517 c-32 -18 -58 -36 -58 -42 1 -16 159 -236 247 -343 140
-169 347 -359 537 -496 89 -63 85 -64 130 16 32 55 44 38 -104 148 -241 179
-441 388 -617 643 -41 59 -75 107 -76 107 -1 -1 -28 -15 -59 -33z"/>
<path d="M5240 1418 c-161 -239 -476 -544 -737 -715 -46 -30 -83 -58 -83 -63
0 -8 55 -108 66 -119 5 -5 98 53 194 122 256 183 497 425 678 681 23 33 42 62
42 66 0 6 -116 81 -123 80 -1 0 -18 -24 -37 -52z"/>
<path d="M1653 524 c-18 -31 -33 -59 -33 -63 0 -12 244 -126 376 -175 128 -48
291 -94 444 -125 116 -24 367 -54 380 -46 12 7 13 115 2 131 -4 7 -41 15 -82
19 -305 28 -629 118 -909 251 -74 35 -137 64 -140 64 -3 0 -21 -25 -38 -56z"/>
<path d="M4085 479 c-194 -86 -438 -158 -655 -193 -75 -12 -316 -36 -361 -36
-5 0 -9 -31 -9 -70 l0 -70 73 0 c173 0 484 52 697 117 157 47 416 150 448 178
5 4 -69 125 -76 124 -4 -1 -56 -23 -117 -50z"/>
</g>
</svg>
