<?xml version="1.0" encoding="UTF-8" standalone="no"?>
<!DOCTYPE svg PUBLIC "-//W3C//DTD SVG 1.1//EN" "http://www.w3.org/Graphics/SVG/1.1/DTD/svg11.dtd">
<svg xmlns="http://www.w3.org/2000/svg" version="1.1" viewBox="0.00 0.00 1080.00 329.00">
<path fill="#000000" d="
  M 165.22 26.94
  C 145.19 27.83 124.65 32.88 106.85 42.27
  Q 106.08 42.68 105.63 41.93
  L 103.11 37.65
  A 0.85 0.84 -28.7 0 1 103.46 36.47
  Q 132.50 21.73 165.12 20.29
  Q 165.49 20.28 165.48 20.65
  L 165.43 26.72
  Q 165.43 26.93 165.22 26.94
  Z"
/>
<path fill="#000000" d="
  M 235.79 34.72
  Q 238.29 35.91 240.45 36.89
  Q 241.58 37.41 240.95 38.48
  L 238.65 42.39
  Q 238.13 43.29 237.20 42.81
  Q 209.78 28.59 178.84 26.98
  Q 178.53 26.97 178.53 26.65
  L 178.53 20.59
  A 0.27 0.27 0.0 0 1 178.81 20.32
  Q 208.84 21.84 235.79 34.72
  Z"
/>
<path fill="#000000" d="
  M 46.05 88.31
  Q 63.61 61.30 90.66 43.85
  Q 91.50 43.31 92.00 44.18
  L 94.32 48.22
  Q 94.82 49.11 93.97 49.67
  Q 68.52 66.22 51.83 91.55
  Q 51.42 92.17 50.78 91.80
  L 46.26 89.19
  A 0.62 0.62 0.0 0 1 46.05 88.31
  Z"
/>
<path fill="#000000" d="
  M 292.93 94.14
  Q 292.78 94.22 292.69 94.08
  Q 275.91 67.40 249.63 50.08
  A 0.44 0.44 0.0 0 1 249.49 49.49
  L 252.55 44.28
  Q 252.65 44.10 252.83 44.22
  Q 280.70 62.44 298.40 90.67
  Q 298.56 90.94 298.29 91.09
  L 292.93 94.14
  Z"
/>
<path fill="#000000" d="
  M 39.29 100.16
  L 44.05 102.88
  A 0.97 0.97 0.0 0 1 44.43 104.16
  Q 30.66 131.02 28.80 161.21
  Q 28.74 162.17 27.78 162.16
  L 23.00 162.15
  Q 22.08 162.15 22.14 161.23
  Q 24.13 129.34 38.07 102.02
  Q 38.58 101.02 39.23 100.17
  A 0.05 0.04 29.4 0 1 39.29 100.16
  Z"
/>
<path fill="#000000" d="
  M 117.50 189.27
  L 75.07 221.76
  Q 74.63 222.10 74.76 222.64
  C 78.47 238.49 56.34 243.92 52.27 228.78
  Q 51.04 224.23 53.63 220.15
  Q 58.76 212.04 68.51 215.62
  Q 68.92 215.77 69.27 215.51
  L 113.46 181.69
  A 1.22 1.22 0.0 0 0 113.93 180.69
  C 113.42 164.60 133.24 158.95 140.26 173.46
  C 141.06 175.13 141.10 177.23 141.68 179.17
  Q 141.84 179.69 142.32 179.95
  L 170.54 195.52
  Q 171.34 195.96 172.05 195.40
  Q 180.31 188.82 189.53 194.21
  A 0.71 0.71 0.0 0 0 190.38 194.11
  L 247.24 140.43
  A 0.93 0.92 -38.8 0 0 247.37 139.24
  C 239.38 127.46 243.17 111.17 255.99 104.44
  C 273.24 95.39 293.59 109.95 290.71 129.15
  C 288.16 146.18 269.13 154.83 254.54 146.01
  A 0.77 0.76 38.6 0 0 253.62 146.11
  L 195.58 200.90
  Q 195.08 201.37 195.23 202.04
  Q 197.32 211.87 190.24 217.28
  C 185.66 220.77 179.09 221.45 174.24 218.31
  Q 167.17 213.75 167.10 204.30
  Q 167.09 203.33 166.25 202.86
  L 139.25 187.97
  Q 138.63 187.63 138.12 188.12
  Q 128.85 196.85 118.31 189.26
  Q 117.90 188.96 117.50 189.27
  Z"
/>
<path fill="#000000" d="
  M 304.75 102.39
  Q 304.98 102.26 305.10 102.50
  Q 319.99 132.19 320.95 165.52
  Q 320.96 165.75 320.73 165.75
  L 314.52 165.75
  Q 314.31 165.75 314.30 165.53
  Q 313.32 133.98 299.34 105.82
  A 0.45 0.44 -27.8 0 1 299.53 105.23
  L 304.75 102.39
  Z"
/>
<path fill="#000000" d="
  M 417.92 137.29
  L 417.92 208.16
  Q 417.92 209.19 416.89 209.19
  L 399.34 209.05
  Q 398.63 209.05 398.63 208.34
  L 398.63 137.32
  A 0.81 0.81 0.0 0 0 397.82 136.51
  L 372.70 136.56
  Q 372.09 136.56 372.09 135.95
  L 372.08 121.32
  Q 372.08 120.78 372.63 120.78
  Q 395.72 120.84 418.74 120.77
  C 423.63 120.75 429.30 119.74 433.31 116.26
  Q 433.67 115.95 434.10 116.16
  L 447.42 122.63
  A 1.11 1.10 -60.9 0 1 447.87 124.22
  C 441.02 135.00 430.20 136.52 418.42 136.78
  Q 417.92 136.79 417.92 137.29
  Z"
/>
<path fill="#000000" d="
  M 673.17 137.25
  L 673.17 208.20
  Q 673.17 209.14 672.23 209.14
  L 654.51 209.13
  Q 653.89 209.13 653.89 208.51
  L 653.88 137.09
  A 0.55 0.55 0.0 0 0 653.34 136.54
  L 628.28 136.53
  A 1.00 1.00 0.0 0 1 627.29 135.53
  L 627.33 121.50
  A 0.66 0.65 -90.0 0 1 627.98 120.84
  Q 651.30 120.84 674.75 120.50
  C 680.17 120.42 685.07 119.74 688.52 116.19
  A 0.62 0.60 -53.6 0 1 689.23 116.07
  L 703.02 122.80
  A 0.69 0.69 0.0 0 1 703.32 123.76
  C 697.22 134.50 685.93 136.72 673.79 136.64
  Q 673.17 136.63 673.17 137.25
  Z"
/>
<path fill="#000000" d="
  M 587.77 149.78
  C 588.70 149.61 589.70 149.07 590.51 148.92
  C 604.08 146.39 619.34 152.69 623.61 166.48
  Q 624.76 170.21 624.79 178.13
  Q 624.84 193.18 624.79 208.63
  A 0.56 0.54 -89.0 0 1 624.24 209.18
  L 606.23 209.04
  A 0.73 0.72 90.0 0 1 605.51 208.31
  Q 605.57 191.85 605.49 175.75
  Q 605.48 172.71 603.19 170.29
  C 596.78 163.50 587.22 168.59 587.19 177.25
  Q 587.15 192.66 587.13 208.47
  Q 587.13 209.13 586.47 209.13
  L 568.72 209.11
  Q 567.83 209.11 567.83 208.22
  L 567.83 123.11
  A 0.37 0.36 0.0 0 1 568.20 122.75
  L 586.70 122.74
  A 0.46 0.45 90.0 0 1 587.15 123.20
  L 587.14 149.25
  A 0.54 0.54 0.0 0 0 587.77 149.78
  Z"
/>
<path fill="#000000" d="
  M 922.70 151.91
  Q 923.45 152.36 923.45 151.49
  L 923.43 123.29
  A 0.54 0.53 -90.0 0 1 923.96 122.75
  L 942.02 122.73
  A 0.57 0.57 0.0 0 1 942.59 123.30
  Q 942.51 155.54 942.44 187.50
  Q 942.42 196.74 946.06 205.37
  A 0.75 0.75 0.0 0 1 945.69 206.34
  L 930.02 213.96
  Q 929.69 214.12 929.49 213.82
  Q 926.83 209.75 925.66 205.04
  A 0.35 0.35 0.0 0 0 925.11 204.83
  C 906.06 218.65 879.19 204.86 877.98 181.77
  C 877.11 165.24 889.95 150.34 906.25 148.48
  Q 915.38 147.43 922.70 151.91
  Z
  M 912.4055 193.6314
  A 13.95 13.72 76.8 0 0 922.5775 176.9170
  A 13.95 13.72 76.8 0 0 906.0345 166.4686
  A 13.95 13.72 76.8 0 0 895.8625 183.1830
  A 13.95 13.72 76.8 0 0 912.4055 193.6314
  Z"
/>
<path fill="#000000" d="
  M 829.19 150.97
  A 0.49 0.48 -20.3 0 0 829.90 151.29
  C 835.93 147.90 843.88 147.80 850.44 149.27
  C 859.80 151.35 866.97 157.31 869.64 166.60
  Q 870.75 170.48 870.71 178.99
  C 870.67 188.13 869.60 196.43 873.22 205.21
  Q 873.62 206.16 872.69 206.61
  L 857.36 214.10
  Q 856.91 214.32 856.67 213.89
  C 850.28 202.48 851.28 190.73 851.47 177.25
  C 851.64 165.67 836.08 163.69 832.46 173.98
  Q 831.77 175.97 831.74 180.60
  Q 831.65 194.43 831.69 208.47
  A 0.70 0.70 0.0 0 1 830.99 209.17
  L 813.25 208.99
  Q 812.72 208.99 812.72 208.46
  Q 812.67 189.70 812.68 171.00
  Q 812.69 160.29 809.71 151.81
  Q 809.52 151.29 810.02 151.05
  L 825.27 143.59
  A 0.80 0.80 0.0 0 1 826.29 143.87
  Q 828.39 147.15 829.19 150.97
  Z"
/>
<path fill="#000000" d="
  M 717.72 149.67
  A 0.34 0.33 69.5 0 0 718.18 149.88
  C 724.10 147.11 733.50 148.28 739.97 148.20
  A 0.57 0.57 0.0 0 1 740.55 148.77
  L 740.60 163.77
  A 0.97 0.97 0.0 0 1 739.62 164.74
  C 735.19 164.65 729.56 164.02 725.87 166.16
  Q 720.63 169.20 720.59 176.01
  Q 720.48 192.26 720.57 208.45
  A 0.57 0.57 0.0 0 1 720.00 209.02
  L 702.23 209.02
  A 0.80 0.80 0.0 0 1 701.43 208.22
  Q 701.47 186.42 701.31 165.14
  Q 701.26 158.34 699.02 151.99
  Q 698.86 151.53 699.29 151.32
  L 714.63 143.80
  A 0.98 0.97 67.9 0 1 715.99 144.38
  L 717.72 149.67
  Z"
/>
<path fill="#000000" d="
  M 452.27 186.50
  Q 452.12 187.02 452.54 187.75
  C 458.06 197.11 470.54 196.62 476.43 188.26
  A 0.47 0.47 0.0 0 1 477.08 188.14
  L 490.04 196.72
  A 0.90 0.90 0.0 0 1 490.27 198.01
  C 476.62 216.17 448.54 214.50 437.81 194.07
  C 426.54 172.61 440.61 148.10 465.23 148.42
  C 486.24 148.69 498.93 165.38 494.48 185.53
  A 0.75 0.75 0.0 0 1 493.75 186.12
  L 452.81 186.09
  Q 452.38 186.09 452.27 186.50
  Z
  M 476.24 171.94
  C 470.81 162.26 457.90 163.03 452.39 172.12
  A 0.72 0.72 0.0 0 0 453.00 173.22
  L 475.48 173.24
  Q 476.97 173.24 476.24 171.94
  Z"
/>
<path fill="#000000" d="
  M 534.28 166.50
  Q 529.35 165.76 525.51 168.06
  Q 515.98 173.77 519.23 185.00
  C 520.85 190.60 525.10 193.90 530.87 194.47
  Q 539.64 195.34 545.16 186.21
  Q 545.61 185.47 546.41 185.77
  L 560.74 191.05
  A 0.66 0.66 0.0 0 1 561.13 191.89
  C 548.22 227.38 495.12 213.05 500.61 174.78
  C 502.83 159.26 516.94 148.29 532.75 148.34
  C 545.72 148.38 557.84 156.26 561.21 169.13
  A 0.73 0.72 -17.5 0 1 560.75 170.00
  L 546.00 175.30
  Q 545.45 175.50 545.14 175.00
  C 542.30 170.30 539.94 167.34 534.28 166.50
  Z"
/>
<path fill="#000000" d="
  M 761.73 186.84
  A 0.78 0.76 -53.8 0 0 761.79 187.26
  Q 764.15 192.39 769.79 193.88
  Q 779.04 196.33 786.00 188.55
  Q 786.45 188.05 787.01 188.42
  L 799.43 196.64
  A 1.11 1.11 0.0 0 1 799.67 198.27
  C 784.96 216.30 756.76 214.73 746.42 192.20
  C 734.95 167.20 757.23 142.24 783.24 149.39
  C 799.68 153.92 807.31 168.46 804.08 185.32
  Q 803.91 186.16 803.05 186.16
  Q 783.10 186.06 762.75 185.99
  Q 761.83 185.99 761.73 186.84
  Z
  M 779.34 166.08
  C 772.46 163.25 766.01 165.94 762.00 171.84
  A 0.89 0.88 -73.0 0 0 762.73 173.22
  L 785.52 173.24
  A 0.43 0.42 -10.7 0 0 785.92 172.66
  Q 784.10 168.05 779.34 166.08
  Z"
/>
<path fill="#000000" d="
  M 989.00 194.77
  C 991.80 193.51 993.64 189.51 990.27 187.50
  C 986.07 185.00 980.37 185.22 975.64 184.82
  C 946.51 182.35 949.52 152.26 975.26 148.68
  C 988.14 146.89 1000.55 150.99 1006.79 162.54
  Q 1007.39 163.63 1006.26 164.18
  L 994.02 170.14
  A 0.98 0.97 -31.6 0 1 992.82 169.86
  C 988.44 164.15 979.62 160.90 972.54 164.33
  C 969.69 165.72 968.74 168.98 971.11 171.39
  C 973.74 174.06 981.22 173.49 984.75 173.71
  C 995.99 174.44 1011.31 179.50 1007.95 194.26
  C 1005.05 206.98 991.65 211.00 979.75 211.12
  C 968.15 211.24 956.62 205.45 951.84 194.51
  A 0.52 0.52 0.0 0 1 952.09 193.84
  L 964.40 187.88
  A 0.82 0.81 62.1 0 1 965.46 188.21
  C 970.20 196.38 980.81 198.48 989.00 194.77
  Z"
/>
<path fill="#000000" d="
  M 28.45 174.81
  Q 28.64 174.81 28.64 175.00
  Q 29.88 205.85 43.53 233.45
  A 0.36 0.36 0.0 0 1 43.39 233.92
  L 38.11 236.93
  A 0.22 0.22 0.0 0 1 37.81 236.84
  Q 23.28 207.78 22.05 175.18
  Q 22.04 174.83 22.39 174.83
  L 28.45 174.81
  Z"
/>
<path fill="#000000" d="
  M 297.28 237.69
  C 306.74 218.55 312.66 200.32 314.08 178.95
  Q 314.10 178.75 314.30 178.75
  L 320.51 178.75
  Q 320.75 178.75 320.73 178.99
  Q 318.64 211.97 302.97 240.96
  Q 302.65 241.56 302.05 241.22
  L 297.59 238.68
  A 0.76 0.76 0.0 0 1 297.28 237.69
  Z"
/>
<path fill="#000000" d="
  M 49.85 245.11
  Q 50.01 245.01 50.11 245.17
  Q 66.43 271.23 91.90 288.38
  A 0.36 0.34 32.8 0 1 92.01 288.85
  L 88.98 294.20
  Q 88.88 294.39 88.70 294.27
  Q 61.74 276.19 44.46 248.70
  A 0.37 0.37 0.0 0 1 44.59 248.18
  L 49.85 245.11
  Z"
/>
<path fill="#000000" d="
  M 295.45 253.34
  C 283.46 271.13 267.45 286.41 249.16 297.52
  A 0.22 0.22 0.0 0 1 248.85 297.44
  L 245.85 292.24
  A 0.46 0.46 0.0 0 1 246.01 291.63
  Q 272.15 275.45 289.63 250.13
  Q 290.16 249.37 290.97 249.81
  L 295.14 252.09
  Q 295.98 252.55 295.45 253.34
  Z"
/>
<path fill="#000000" d="
  M 103.52 295.44
  C 121.24 305.15 141.35 310.81 161.45 312.22
  Q 161.69 312.24 161.69 312.47
  L 161.76 318.65
  A 0.27 0.27 0.0 0 1 161.47 318.92
  Q 128.98 316.67 100.36 301.28
  Q 100.04 301.11 100.22 300.80
  L 103.09 295.56
  Q 103.24 295.28 103.52 295.44
  Z"
/>
<path fill="#000000" d="
  M 233.97 298.20
  A 0.35 0.34 62.2 0 1 234.41 298.34
  L 237.37 303.47
  A 0.43 0.42 -27.7 0 1 237.18 304.06
  Q 207.78 318.37 175.00 319.22
  Q 174.75 319.23 174.75 318.98
  L 174.78 312.87
  A 0.30 0.29 -90.0 0 1 175.07 312.57
  Q 206.11 311.73 233.97 298.20
  Z"
/>
</svg>
